<svg id="Layer_1" data-name="Layer 1" xmlns="http://www.w3.org/2000/svg" xmlns:xlink="http://www.w3.org/1999/xlink" viewBox="0 0 790.07 790.07"><defs><style>.cls-1{fill:url(#linear-gradient);}.cls-2{fill:url(#linear-gradient-2);}.cls-3{fill:url(#linear-gradient-3);}.cls-4{fill:url(#linear-gradient-4);}.cls-5{fill:url(#linear-gradient-5);}.cls-6{fill:url(#linear-gradient-6);}.cls-7{fill:url(#linear-gradient-7);}.cls-8{fill:url(#linear-gradient-8);}.cls-9{fill:url(#linear-gradient-9);}</style><linearGradient id="linear-gradient" x1="587.66" y1="386.95" x2="434.58" y2="386.95" gradientUnits="userSpaceOnUse"><stop offset="0" stop-color="#25a25a"/><stop offset="1" stop-color="#2ecc71"/></linearGradient><linearGradient id="linear-gradient-2" x1="184.62" y1="330.83" x2="373.62" y2="330.83" xlink:href="#linear-gradient"/><linearGradient id="linear-gradient-3" x1="297.07" y1="686.2" x2="297.07" y2="260.01" xlink:href="#linear-gradient"/><linearGradient id="linear-gradient-4" x1="565.6" y1="614.98" x2="760.73" y2="614.98" gradientTransform="translate(49.51 1279.48) rotate(-90)" xlink:href="#linear-gradient"/><linearGradient id="linear-gradient-5" x1="90.49" y1="389.21" x2="90.49" y2="102.59" xlink:href="#linear-gradient"/><linearGradient id="linear-gradient-6" x1="699.57" y1="132.5" x2="699.57" y2="400.27" xlink:href="#linear-gradient"/><linearGradient id="linear-gradient-7" x1="503.65" y1="386.62" x2="503.65" y2="686.12" xlink:href="#linear-gradient"/><linearGradient id="linear-gradient-8" x1="503.65" y1="680.32" x2="503.65" y2="378.66" xlink:href="#linear-gradient"/><linearGradient id="linear-gradient-9" x1="769.59" y1="172.8" x2="447.09" y2="172.8" xlink:href="#linear-gradient"/></defs><title>logo</title><polygon class="cls-1" points="579.7 396.17 568.99 377.73 438.31 377.73 438.31 396.17 579.7 396.17"/><polygon class="cls-2" points="189.24 396.17 362.41 396.17 362.41 265.49 231.73 265.49 189.24 396.17"/><polygon class="cls-3" points="362.41 682.6 231.73 584.45 231.73 265.49 362.41 265.49 362.41 682.6"/><rect class="cls-4" x="599.16" y="519.47" width="130.68" height="191.02" transform="translate(1279.48 -49.51) rotate(90)"/><polygon class="cls-5" points="155.83 396.17 25.15 396.17 25.15 238.14 155.83 107.46 155.83 396.17"/><polygon class="cls-6" points="764.91 396.17 764.91 238.14 634.24 135.67 634.24 396.17 764.91 396.17"/><polygon class="cls-7" points="568.99 680.32 568.99 396.17 438.31 396.17 438.31 581.55 568.99 680.32"/><polygon class="cls-8" points="568.99 680.32 568.99 377.73 438.31 377.73 438.31 581.55 568.99 680.32"/><polygon class="cls-9" points="443.21 238.14 443.21 107.46 673.23 107.46 764.91 238.14 443.21 238.14"/></svg>