<svg id="Layer_1" data-name="Layer 1" xmlns="http://www.w3.org/2000/svg" xmlns:xlink="http://www.w3.org/1999/xlink" viewBox="0 0 790.1 790.1"><defs><style>.cls-1{fill:url(#linear-gradient);}.cls-2{fill:url(#linear-gradient-2);}.cls-3{fill:url(#linear-gradient-3);}.cls-4{fill:url(#linear-gradient-4);}.cls-5{fill:url(#linear-gradient-5);}.cls-6{fill:url(#linear-gradient-6);}.cls-7{fill:url(#linear-gradient-7);}.cls-8{fill:url(#linear-gradient-8);}.cls-9{fill:url(#linear-gradient-9);}</style><linearGradient id="linear-gradient" x1="590" y1="376.1" x2="277.96" y2="376.1" gradientUnits="userSpaceOnUse"><stop offset="0" stop-color="#25a25a"/><stop offset="1" stop-color="#2ecc71"/></linearGradient><linearGradient id="linear-gradient-2" x1="195" y1="330.85" x2="478" y2="330.85" xlink:href="#linear-gradient"/><linearGradient id="linear-gradient-3" x1="297.05" y1="105.8" x2="297.05" y2="531.99" gradientTransform="matrix(1, 0, 0, -1, 0, 792)" xlink:href="#linear-gradient"/><linearGradient id="linear-gradient-4" x1="552" y1="614.95" x2="765.04" y2="614.95" xlink:href="#linear-gradient"/><linearGradient id="linear-gradient-5" x1="90.5" y1="448" x2="90.5" y2="139.99" xlink:href="#linear-gradient"/><linearGradient id="linear-gradient-6" x1="699.55" y1="238" x2="699.55" y2="400" xlink:href="#linear-gradient"/><linearGradient id="linear-gradient-7" x1="503.65" y1="405.38" x2="503.65" y2="105.88" gradientTransform="matrix(1, 0, 0, -1, 0, 792)" xlink:href="#linear-gradient"/><linearGradient id="linear-gradient-8" x1="503.65" y1="850" x2="503.65" y2="354.42" xlink:href="#linear-gradient"/><linearGradient id="linear-gradient-9" x1="441" y1="172.8" x2="748.04" y2="172.8" xlink:href="#linear-gradient"/></defs><title>42ChartsLogo</title><polygon class="cls-1" points="587 396.2 569 356 438.3 377.7 438.3 396.2 587 396.2"/><polygon class="cls-2" points="189.2 396.2 362.4 396.2 362.4 265.5 231.7 265.5 189.2 396.2"/><polygon class="cls-3" points="362.4 682.6 231.7 584.4 231.7 265.5 362.4 265.5 362.4 682.6"/><polygon class="cls-4" points="569 680.3 569 549.6 760 549.6 760 680.3 569 680.3"/><polygon class="cls-5" points="155.8 396.2 25.2 396.2 25.2 238.1 155.8 107.5 155.8 396.2"/><polygon class="cls-6" points="764.9 396.2 764.9 238.1 634.2 135.7 634.2 396.2 764.9 396.2"/><polygon class="cls-7" points="569 680.3 569 396.2 438.3 396.2 438.3 581.6 569 680.3"/><polygon class="cls-8" points="569 680.3 569 356 438.3 356 438.3 581.6 569 680.3"/><polygon class="cls-9" points="443.2 238.1 443.2 107.5 673.2 107.5 764.9 238.1 443.2 238.1"/></svg>