<svg id="Layer_1" data-name="Layer 1" xmlns="http://www.w3.org/2000/svg" xmlns:xlink="http://www.w3.org/1999/xlink" viewBox="0 0 595.28 374"><defs><style>.cls-1{fill:url(#linear-gradient);}.cls-2{fill:url(#linear-gradient-2);}.cls-3{fill:url(#linear-gradient-3);}.cls-4{fill:url(#linear-gradient-4);}.cls-5{fill:url(#linear-gradient-5);}.cls-6{fill:url(#linear-gradient-6);}.cls-7{fill:url(#linear-gradient-7);}</style><linearGradient id="linear-gradient" x1="144.45" y1="158.64" x2="226.95" y2="156.89" gradientUnits="userSpaceOnUse"><stop offset="0" stop-color="#569a48"/><stop offset="1" stop-color="#10572f"/></linearGradient><linearGradient id="linear-gradient-2" x1="250.92" y1="116.91" x2="250.92" y2="392.49" xlink:href="#linear-gradient"/><linearGradient id="linear-gradient-3" x1="475.49" y1="292.98" x2="379.94" y2="292.98" gradientTransform="translate(133.16 719.12) rotate(-90)" xlink:href="#linear-gradient"/><linearGradient id="linear-gradient-4" x1="315.83" y1="81.02" x2="463.85" y2="81.02" gradientUnits="userSpaceOnUse"><stop offset="0" stop-color="#6fbf5b"/><stop offset="1" stop-color="#4fba6e"/></linearGradient><linearGradient id="linear-gradient-5" x1="152.41" y1="40.97" x2="152.41" y2="206.74" xlink:href="#linear-gradient-4"/><linearGradient id="linear-gradient-6" x1="442.87" y1="188.43" x2="442.87" y2="111.42" xlink:href="#linear-gradient"/><linearGradient id="linear-gradient-7" x1="349.44" y1="182.99" x2="349.44" y2="325.82" xlink:href="#linear-gradient-4"/></defs><title>logo</title><polygon class="cls-1" points="183.57 187.54 282.08 187.54 282.08 125.22 219.76 125.22 183.57 187.54"/><polygon class="cls-2" points="282.08 324.14 219.76 277.33 219.76 125.22 282.08 125.22 282.08 324.14"/><rect class="cls-3" x="394.98" y="247.43" width="62.32" height="91.09" transform="translate(719.12 -133.16) rotate(90)"/><polygon class="cls-4" points="320.62 112.18 320.62 49.86 430.31 49.86 474.03 112.18 320.62 112.18"/><polygon class="cls-5" points="183.57 187.54 121.25 187.54 121.25 112.18 183.57 49.86 183.57 187.54"/><rect class="cls-6" x="411.71" y="112.18" width="62.32" height="75.36"/><polygon class="cls-7" points="380.6 323.05 380.6 187.54 318.28 187.54 318.28 275.95 380.6 323.05"/></svg>