<svg id="Layer_1" data-name="Layer 1" xmlns="http://www.w3.org/2000/svg" xmlns:xlink="http://www.w3.org/1999/xlink" viewBox="0 0 133.1 133.1"><defs><style>.cls-1{fill:url(#linear-gradient);}.cls-2{fill:#52b36e;}.cls-3{fill:#141414;}</style><linearGradient id="linear-gradient" x1="84.85" y1="65.04" x2="84.85" y2="115.51" gradientUnits="userSpaceOnUse"><stop offset="0" stop-color="#75b94b"/><stop offset="1" stop-color="#53b261"/></linearGradient></defs><title>42ChartsLogo</title><polygon class="cls-1" points="95.87 114.54 95.87 66.64 73.84 66.64 73.84 97.89 95.87 114.54"/><polygon class="cls-2" points="95.87 92.51 95.87 66.64 97.67 66.64 95.87 63.54 73.84 63.54 73.84 63.54 73.84 66.64 73.84 66.64 73.84 97.89 95.87 114.54 128.06 114.54 128.06 92.51 95.87 92.51"/><polygon class="cls-2" points="39.02 66.64 39.02 98.57 61.05 115.11 61.05 66.64 39.02 66.64"/><polygon class="cls-3" points="4.21 66.64 26.23 66.64 26.23 17.99 4.21 40.01 4.21 66.64"/><polygon class="cls-3" points="128.89 40.01 113.44 17.99 74.67 17.99 74.67 40.01 106.86 40.01 106.86 66.64 128.89 66.64 128.89 40.01 128.89 40.01"/><polygon class="cls-3" points="31.86 66.64 39.02 66.64 39.02 66.64 61.05 66.64 61.05 66.64 61.05 44.62 39.02 44.62 31.86 66.64"/></svg>